<svg xmlns="http://www.w3.org/2000/svg" preserveAspectRatio="none" viewBox="0 0 1920 1080"><defs><linearGradient id="a" x1="0" x2="0" y1="0" y2="1"><stop offset="0%" stop-color="#66e3d9"/><stop offset="55%" stop-color="#bff6ea"/><stop offset="100%" stop-color="#ffe9bd"/></linearGradient></defs><path fill="url(#a)" d="M0 0h1920v1080H0z"/><path fill="#2aa5b2" d="M0 710h1920v370H0z"/><ellipse cx="960" cy="700" fill="#f3d8a0" rx="620" ry="160"/><ellipse cx="960" cy="710" fill="#5fd2cf" rx="420" ry="112"/><ellipse cx="960" cy="710" fill="#7be6df" rx="315" ry="84"/><path fill="#d5a46c" d="M0 860h1920v220H0z"/><path fill="#1d8e78" d="M210 860h36l-10-180h-16zm50 0h36l-10-220h-16zm1250 0h36l-10-190h-16zm60 0h36l-10-235h-16z" opacity=".72"/><path stroke="#c9935b" stroke-width="10" d="M0 930h1920M0 990h1920M0 1040h1920" opacity=".4"/></svg>