<svg xmlns="http://www.w3.org/2000/svg" preserveAspectRatio="none" viewBox="0 0 1920 1080"><defs><linearGradient id="a" x1="0" x2="0" y1="0" y2="1"><stop offset="0%" stop-color="#ffb26d"/><stop offset="60%" stop-color="#ffd8ab"/><stop offset="100%" stop-color="#f8d9b2"/></linearGradient></defs><path fill="url(#a)" d="M0 0h1920v1080H0z"/><circle cx="1470" cy="190" r="106" fill="#ffd27a" opacity=".85"/><path fill="#dbbc89" d="M0 655c220-45 420-35 650 15 290 65 550 60 800 0 190-45 330-50 470-30v120H0Z" opacity=".95"/><path fill="#b07f52" d="M0 760h1920v320H0z"/><path stroke="#935f39" stroke-width="12" d="M0 842h1920M0 904h1920M0 966h1920M0 1028h1920" opacity=".5"/><g fill="#fff3d1" opacity=".7"><rect width="1500" height="18" x="220" y="566" rx="9"/><rect width="1500" height="14" x="220" y="604" rx="7"/></g></svg>