<svg xmlns="http://www.w3.org/2000/svg" viewBox="0 0 1920 1080" preserveAspectRatio="none">
  <defs>
    <linearGradient id="sky5" x1="0" x2="0" y1="0" y2="1">
      <stop offset="0%" stop-color="#ff7e73"/>
      <stop offset="56%" stop-color="#ffb59f"/>
      <stop offset="100%" stop-color="#ffd7cb"/>
    </linearGradient>
  </defs>
  <rect width="1920" height="1080" fill="url(#sky5)"/>
  <rect y="710" width="1920" height="370" fill="#b86ed0"/>
  <rect y="760" width="1920" height="320" fill="#8f58be" opacity="0.5"/>
  <g fill="#5e377f" opacity="0.7">
    <path d="M160 860 h64 v-180 h-22 l-18 180 z"/>
    <path d="M250 860 h70 v-250 h-24 l-20 250 z"/>
    <path d="M1480 860 h66 v-210 h-22 l-18 210 z"/>
    <path d="M1578 860 h74 v-290 h-26 l-20 290 z"/>
  </g>
  <path d="M0 680 C220 640 480 640 760 700 C1040 760 1320 760 1620 700 C1760 670 1840 660 1920 665 L1920 760 L0 760 Z" fill="#f4b784" opacity="0.82"/>
  <rect y="860" width="1920" height="220" fill="#ca9473"/>
  <g stroke="#a86e5a" stroke-width="10" opacity="0.4">
    <path d="M0 930 H1920"/>
    <path d="M0 990 H1920"/>
    <path d="M0 1040 H1920"/>
  </g>
</svg>
