<svg xmlns="http://www.w3.org/2000/svg" preserveAspectRatio="none" viewBox="0 0 1920 1080"><defs><linearGradient id="a" x1="0" x2="0" y1="0" y2="1"><stop offset="0%" stop-color="#8ad6ff"/><stop offset="60%" stop-color="#d2f4ff"/><stop offset="100%" stop-color="#ffe3b0"/></linearGradient></defs><path fill="url(#a)" d="M0 0h1920v1080H0z"/><path fill="#2f8ec9" d="M0 710h1920v370H0z"/><path fill="#3ea0d8" d="M0 760h1920v320H0z" opacity=".45"/><path fill="#f4d39b" d="M0 640c220-40 420-30 640 10 260 50 480 50 720 0 220-50 380-40 560-5v75H0Z" opacity=".9"/><g fill="#fff" opacity=".82"><ellipse cx="350" cy="210" rx="85" ry="34"/><ellipse cx="420" cy="218" rx="65" ry="28"/><ellipse cx="980" cy="170" rx="92" ry="36"/><ellipse cx="1060" cy="178" rx="64" ry="26"/><ellipse cx="1600" cy="250" rx="78" ry="30"/></g><path fill="#d4a96f" d="M0 860h1920v220H0z"/><path stroke="#c58f53" stroke-width="10" d="M0 930h1920M0 980h1920M0 1030h1920" opacity=".42"/></svg>