<svg xmlns="http://www.w3.org/2000/svg" viewBox="0 0 1920 1080" preserveAspectRatio="none">
  <defs>
    <linearGradient id="sky1" x1="0" x2="0" y1="0" y2="1">
      <stop offset="0%" stop-color="#8ad6ff"/>
      <stop offset="60%" stop-color="#d2f4ff"/>
      <stop offset="100%" stop-color="#ffe3b0"/>
    </linearGradient>
  </defs>
  <rect width="1920" height="1080" fill="url(#sky1)"/>
  <rect y="710" width="1920" height="370" fill="#2f8ec9"/>
  <rect y="760" width="1920" height="320" fill="#3ea0d8" opacity="0.45"/>
  <path d="M0 640 C220 600 420 610 640 650 C900 700 1120 700 1360 650 C1580 600 1740 610 1920 645 L1920 720 L0 720 Z" fill="#f4d39b" opacity="0.9"/>
  <g fill="#ffffff" opacity="0.82">
    <ellipse cx="350" cy="210" rx="85" ry="34"/>
    <ellipse cx="420" cy="218" rx="65" ry="28"/>
    <ellipse cx="980" cy="170" rx="92" ry="36"/>
    <ellipse cx="1060" cy="178" rx="64" ry="26"/>
    <ellipse cx="1600" cy="250" rx="78" ry="30"/>
  </g>
  <rect y="860" width="1920" height="220" fill="#d4a96f"/>
  <g stroke="#c58f53" stroke-width="10" opacity="0.42">
    <path d="M0 930 H1920"/>
    <path d="M0 980 H1920"/>
    <path d="M0 1030 H1920"/>
  </g>
</svg>
