<svg xmlns="http://www.w3.org/2000/svg" preserveAspectRatio="none" viewBox="0 0 1920 1080"><defs><linearGradient id="a" x1="0" x2="0" y1="0" y2="1"><stop offset="0%" stop-color="#4bbcf8"/><stop offset="58%" stop-color="#9fe5ff"/><stop offset="100%" stop-color="#ffe3aa"/></linearGradient></defs><path fill="url(#a)" d="M0 0h1920v1080H0z"/><circle cx="1530" cy="180" r="92" fill="#ffe59c"/><path fill="#1f8fce" d="M0 700h1920v380H0z"/><path fill="#53c2ed" d="M0 750h1920v330H0z" opacity=".52"/><path fill="#f8d9a4" d="M0 680c300-50 600-60 920-20 300 40 580 40 1000-10v110H0Z"/><g fill="#fff" opacity=".78"><ellipse cx="420" cy="210" rx="100" ry="38"/><ellipse cx="530" cy="220" rx="72" ry="30"/><ellipse cx="980" cy="260" rx="96" ry="34"/></g><path fill="#d3a26a" d="M0 860h1920v220H0z"/><path stroke="#c88f56" stroke-width="10" d="M0 930h1920M0 990h1920M0 1040h1920" opacity=".38"/></svg>